<svg width="15" height="16" viewBox="0 0 15 16" fill="none" xmlns="http://www.w3.org/2000/svg">
<path d="M1.93959 11.514L1.11581 6.488C0.991283 5.7278 0.929021 5.3484 1.12881 5.0992C1.32791 4.85 1.69465 4.85 2.42743 4.85H12.5728C13.3056 4.85 13.6723 4.85 13.8714 5.0992C14.0712 5.3484 14.0083 5.7278 13.8844 6.488L13.0606 11.514C12.7876 13.18 12.6515 14.0123 12.0939 14.5065C11.5369 15 10.7337 15 9.12716 15H5.87308C4.26657 15 3.46331 15 2.90637 14.5058C2.34874 14.0123 2.21259 13.1793 1.93959 11.5133M11.2632 4.85C11.2632 3.82892 10.8668 2.84965 10.161 2.12764C9.45533 1.40562 8.49816 1 7.50012 1C6.50208 1 5.54491 1.40562 4.83919 2.12764C4.13347 2.84965 3.73699 3.82892 3.73699 4.85" stroke="#272C23" stroke-opacity="0.8" stroke-linecap="round" stroke-linejoin="round"/>
</svg>
