<svg width="20" height="20" viewBox="0 0 20 20" fill="none" xmlns="http://www.w3.org/2000/svg">
<path fill-rule="evenodd" clip-rule="evenodd" d="M0.908272 13.4005C0.929172 13.2665 0.992194 13.1427 1.0882 13.047L13.9484 0.186807C14.068 0.0671946 14.2303 0 14.3995 0C14.5687 0 14.7309 0.0671946 14.8506 0.186807L19.8145 5.1507C19.9337 5.2703 20.0006 5.43229 20.0006 5.60116C20.0006 5.77003 19.9337 5.93201 19.8145 6.05161L6.95172 18.9131C6.85583 19.0086 6.73204 19.0712 6.59825 19.0917L0.734728 19.9926C0.635729 20.0078 0.534548 19.9995 0.439371 19.9683C0.344194 19.9371 0.257696 19.8839 0.186876 19.8131C0.116055 19.7423 0.0629019 19.6558 0.0317169 19.5606C0.000531867 19.4655 -0.00780895 19.3643 0.00736963 19.2653L0.908272 13.4005ZM2.1384 13.8012L1.40211 18.5992L6.19884 17.8616L18.4606 5.60116L14.3988 1.54071L2.1384 13.8012Z" fill="black"/>
<path fill-rule="evenodd" clip-rule="evenodd" d="M15.6187 8.78492L11.1052 4.28041L12.0074 3.37695L16.5196 7.88147L15.6187 8.78492Z" fill="black"/>
</svg>
