<svg width="21" height="25" viewBox="0 0 21 25" fill="none" xmlns="http://www.w3.org/2000/svg">
<path d="M18.1 8.66667L17.036 19.3974C16.8751 21.0241 16.7953 21.8367 16.428 22.4513C16.1058 22.9924 15.632 23.425 15.0663 23.6946C14.4241 24 13.616 24 11.9947 24H9.00533C7.38527 24 6.57587 24 5.93367 23.6933C5.36753 23.4239 4.89324 22.9913 4.57073 22.4501C4.20593 21.8367 4.12487 21.0241 3.96273 19.3974L2.9 8.66667M12.4 16.9722V10.5833M8.6 16.9722V10.5833M1 5.47222H6.84567M6.84567 5.47222L7.3346 2.058C7.47647 1.437 7.9882 1 8.57593 1H12.4241C13.0118 1 13.5223 1.437 13.6654 2.058L14.1543 5.47222M6.84567 5.47222H14.1543M14.1543 5.47222H20" stroke="#37412F" stroke-width="1.2" stroke-linecap="round" stroke-linejoin="round"/>
</svg>
