<svg width="430" height="282" viewBox="0 0 430 282" fill="none" xmlns="http://www.w3.org/2000/svg">
<path fill-rule="evenodd" clip-rule="evenodd" d="M430 225.6L418.175 216.2C405.992 206.8 382.342 188 358.333 197.4C334.325 206.8 310.675 244.4 286.667 216.2C262.658 188 239.008 94.0001 215 51.7001C190.992 9.40006 167.342 18.8001 143.333 47.0001C119.325 75.2001 95.675 122.2 71.6667 117.5C47.6583 112.8 24.0083 56.4 11.825 28.2001L-5.86436e-06 5.39609e-05L-3.05176e-05 282L11.825 282C24.0083 282 47.6583 282 71.6667 282C95.675 282 119.325 282 143.333 282C167.342 282 190.992 282 215 282C239.008 282 262.658 282 286.667 282C310.675 282 334.325 282 358.333 282C382.342 282 405.992 282 418.175 282L430 282L430 225.6Z" fill="#859155" fill-opacity="0.5"/>
</svg>
