<svg width="430" height="227" viewBox="0 0 430 227" fill="none" xmlns="http://www.w3.org/2000/svg">
<path fill-rule="evenodd" clip-rule="evenodd" d="M0 181L7.88333 169.5C15.7667 158 31.8917 135 47.6583 135C63.7833 135 79.55 158 95.675 169.5C111.442 181 127.567 181 143.333 161.833C159.1 142.667 175.225 104.333 190.992 112C207.117 119.667 222.883 173.333 239.008 184.833C254.775 196.333 270.9 165.667 286.667 158C302.433 150.333 318.558 165.667 334.325 146.5C350.45 127.333 366.217 73.6667 382.342 81.3333C398.108 89 414.233 158 422.117 192.5L430 227V-3L422.117 -3C414.233 -3 398.108 -3 382.342 -3C366.217 -3 350.45 -3 334.325 -3C318.558 -3 302.433 -3 286.667 -3C270.9 -3 254.775 -3 239.008 -3C222.883 -3 207.117 -3 190.992 -3C175.225 -3 159.1 -3 143.333 -3C127.567 -3 111.442 -3 95.675 -3C79.55 -3 63.7833 -3 47.6583 -3C31.8917 -3 15.7667 -3 7.88333 -3L0 -3L0 181Z" fill="#E5E7DB"/>
</svg>
